<svg width="576" height="512" xmlns="http://www.w3.org/2000/svg">
 <!-- Font Awesome Pro 5.15.4 by @fontawesome - https://fontawesome.com License - https://fontawesome.com/license (Commercial License) -->

 <g>
  <title>Layer 1</title>
  <path fill="white" id="svg_1" d="m402.3,345.9l32,-32c5,-5 13.7,-1.5 13.7,5.7l0,145.4c0,26.5 -21.5,48 -48,48l-352,0c-26.5,0 -48,-21.5 -48,-48l0,-352c0,-26.5 21.5,-48 48,-48l273.5,0c7.1,0 10.7,8.6 5.7,13.7l-32,32c-1.5,1.5 -3.5,2.3 -5.7,2.3l-241.5,0l0,352l352,0l0,-113.5c0,-1.05 0.2,-2.075 0.5875,-3.025c0.3875,-0.95 0.9625,-1.825 1.7125,-2.575zm156.6,-201.8l-262.6,262.6l-90.4,10c-26.2,2.9 -48.5,-19.2 -45.6,-45.6l10,-90.4l262.6,-262.6c22.9,-22.9 59.9,-22.9 82.7,0l43.2,43.2c22.9,22.9 22.9,60 0.1,82.8zm-98.8,30.9l-58.1,-58.1l-185.8,185.9l-7.3,65.3l65.3,-7.3l185.9,-185.8zm64.8,-79.7l-43.2,-43.2c-4.1,-4.1 -10.8,-4.1 -14.8,0l-30.9,30.9l58.1,58.1l30.9,-30.9c4,-4.2 4,-10.8 -0.1,-14.9z"/>
 </g>
</svg>